<svg id="SvgjsSvg1001" width="288" height="288" xmlns="http://www.w3.org/2000/svg" version="1.1" xmlns:xlink="http://www.w3.org/1999/xlink" xmlns:svgjs="http://svgjs.com/svgjs"><g id="SvgjsG1021" fill="#ffbf66" transform="matrix(0.7800000000000001,0,0,0.7800000000000001,31.67999999999998,31.67999999999998)"><circle id="SvgjsCircle1022" r="144" cx="144" cy="144"></circle><rect id="SvgjsRect1023" width="164" height="164" x="124" y="124" rx="20" ry="20"></rect></g><defs id="SvgjsDefs1002"></defs><g id="SvgjsG1008" transform="matrix(0.55,0,0,0.55,64.93061317205428,64.53967274576425)"><svg xmlns="http://www.w3.org/2000/svg" width="288" height="288" version="1.0" viewBox="0 0 200 200"><g transform="matrix(.1 0 0 -.1 0 200)" fill="#ee5d75" class="color000 svgShape"><path d="M883 1985 c-54 -15 -113 -42 -147 -68 -16 -12 -23 -12 -55 3 -43 21-128 40 -176 40 -88 0 -233 -93 -265 -170 -8 -19 -29 -37 -65 -55 -64 -31
-109 -79 -144 -155 -22 -46 -26 -69 -26 -145 0 -78 4 -97 28 -147 26 -53 62
-93 115 -128 23 -15 23 -15 6 -55 -12 -27 -18 -67 -18 -125 -1 -73 3 -94 27
-145 44 -94 127 -169 208 -188 25 -6 27 -10 31 -89 6 -97 29 -157 85 -219 41
-45 141 -99 185 -99 21 0 35 -12 70 -62 51 -73 123 -131 192 -154 124 -42 283
25 363 151 15 25 33 45 40 45 38 0 129 47 178 91 80 74 110 140 111 254 l2 89
30 8 c52 14 125 71 164 128 67 98 82 210 43 321 l-15 41 50 47 c59 56 91 123
98 208 12 158 -82 310 -215 346 -35 9 -52 22 -82 62 -43 57 -108 97 -196 120
-79 20 -112 19 -189 -6 l-65 -21 -26 20 c-74 58 -240 86 -342 57z m237 -52
c25 -9 58 -24 73 -35 l28 -20 -25 -27 c-38 -40 -68 -118 -74 -192 l-5 -67 -71
5 c-63 5 -141 -4 -186 -21 -12 -5 -15 6 -16 61 -1 76 -26 150 -68 206 l-27 35
34 19 c34 20 111 48 157 57 38 6 129 -4 180 -21z m-493 -39 c65 -18 101 -48
137 -115 30 -54 46 -159 32 -212 l-6 -25 -37 19 c-21 10 -59 23 -85 28 -38 6
-60 20 -110 66 -73 68 -146 104 -223 112 -30 3 -55 9 -55 12 1 11 44 56 83 85
71 54 146 62 264 30z m922 -16 c49 -19 131 -85 131 -107 0 -5 -19 -12 -43 -15
-69 -11 -163 -61 -217 -116 -32 -32 -57 -50 -73 -50 -13 0 -45 -11 -72 -24
-44 -23 -51 -24 -76 -11 -64 33 -44 192 34 273 78 82 185 98 316 50z m-1124
-183 c28 -12 70 -40 95 -62 l45 -41 -45 -12 c-143 -37 -210 -141 -197 -300 l6
-69 -50 -16 c-67 -23 -102 -13 -158 44 -115 115 -100 335 31 434 43 33 131 57
183 50 22 -3 63 -15 90 -28z m1381 4 c52 -25 99 -77 128 -138 15 -35 20 -66
20 -126 -1 -97 -26 -158 -86 -209 -52 -45 -82 -52 -121 -28 l-32 18 4 77 c4
101 -18 166 -74 223 -41 40 -86 60 -178 79 -34 7 -29 16 31 57 98 68 225 88
308 47z m-627 -181 c90 -45 124 -94 129 -186 5 -95 -24 -171 -92 -238 -62 -60
-122 -84 -212 -84 -168 0 -290 110 -302 270 -8 113 33 187 130 236 69 35 113
44 202 40 64 -4 90 -10 145 -38z m-470 16 l40 -16 -34 -43 c-18 -24 -39 -61
-46 -82 -27 -83 -6 -212 47 -284 l25 -34 -33 -14 c-36 -14 -121 -9 -193 12
-96 28 -164 146 -152 265 7 64 42 139 78 164 64 47 192 63 268 32z m846 -8
c60 -28 77 -46 106 -111 17 -39 21 -61 17 -119 -10 -148 -88 -226 -228 -226
-58 0 -129 24 -145 50 -3 5 3 27 15 49 53 105 47 209 -16 301 l-35 51 33 14
c20 9 67 14 118 15 69 0 95 -5 135 -24z m-1118 -460 c21 -13 57 -30 81 -36
l42 -11 -6 -54 c-5 -36 -1 -78 11 -128 16 -69 16 -76 1 -100 -34 -52 -115 -70
-199 -45 -56 17 -139 96 -168 160 -30 70 -32 184 -3 242 16 34 26 42 65 51 25
7 54 17 64 22 16 9 23 5 46 -33 16 -23 45 -54 66 -68z m1330 80 c47 -12 60
-31 73 -111 25 -153 -81 -314 -221 -340 -31 -6 -82 9 -107 30 -2 1 6 20 17 42
33 62 45 141 33 209 -9 50 -8 61 5 69 8 6 29 19 47 30 17 11 42 38 55 58 18
27 29 36 40 31 9 -4 35 -12 58 -18z m-417 -103 c19 -8 63 -16 98 -16 58 -1 63
-2 70 -26 14 -53 6 -155 -15 -196 -42 -80 -115 -131 -204 -142 -65 -8 -125 16
-178 70 -42 42 -42 42 -34 97 4 30 6 75 5 100 l-1 46 48 17 c27 9 68 35 92 56
40 36 46 38 64 25 11 -8 36 -22 55 -31z m-515 -35 c48 -26 73 -32 137 -36 l78
-5 0 -66 c-1 -87 -25 -141 -81 -178 -39 -26 -50 -28 -133 -28 -92 1 -133 13
-180 54 -42 37 -71 143 -60 219 l6 42 47 0 c25 1 60 7 76 15 42 19 45 19 110
-17z m345 -367 c26 -12 67 -21 98 -21 61 0 62 -3 31 -86 -41 -110 -125 -173
-229 -174 -84 0 -130 17 -176 64 -43 45 -62 96 -67 176 l-2 44 54 8 c55 8 126
43 151 73 12 14 18 12 54 -24 23 -22 61 -49 86 -60z m-439 19 c34 0 49 -12 49
-41 0 -74 39 -189 74 -218 24 -20 20 -40 -15 -72 -47 -44 -115 -61 -181 -45
-100 23 -160 72 -199 161 -27 61 -39 183 -18 189 8 2 33 9 57 15 24 7 56 26
74 45 l31 33 55 -34 c31 -18 64 -33 73 -33z m845 -58 c20 -134 -80 -289 -212
-328 -50 -14 -58 -14 -104 1 -55 18 -102 53 -83 61 6 3 30 19 53 35 63 46 110
129 134 241 4 19 19 34 45 48 22 11 42 24 45 29 3 5 31 -3 61 -17 50 -25 55
-30 61 -70z m-623 -267 c20 -8 65 -15 100 -15 55 0 67 -3 87 -25 12 -13 47
-34 76 -46 l53 -22 -17 -30 c-9 -16 -34 -44 -54 -62 -115 -105 -253 -110 -362
-14 -41 36 -94 106 -85 113 2 1 30 15 61 30 35 17 64 39 75 57 20 34 20 34 66
14z" fill="#ee5d75" class="color000 svgShape"></path><path d="M937 1496 c-128 -47 -182 -191 -121 -315 60 -120 212 -157 316 -77
105 79 123 217 43 322 -51 66 -160 99 -238 70z m173 -27 c77 -44 122 -146 100
-230 -17 -67 -56 -115 -113 -144 -79 -39 -158 -29 -224 28 -122 107 -84 306
69 364 45 17 120 9 168 -18z" fill="#ee5d75" class="color000 svgShape"></path><path d="M947 1465 c-138 -49 -170 -233 -58 -328 123 -103 302 -16 302 147 0
30 -6 67 -15 84 -21 42 -79 89 -123 101 -48 14 -59 13 -106 -4z m145 -21 c92
-47 118 -198 47 -279 -137 -156 -380 12 -289 200 44 90 150 125 242 79z" fill="#ee5d75" class="color000 svgShape"></path><path d="M945 1424 c-37 -19 -65 -44 -65 -57 0 -6 13 1 28 16 15 15 45 33 67
41 24 9 32 15 20 15 -11 1 -33 -6 -50 -15z" fill="#ee5d75" class="color000 svgShape"></path></g></svg></g></svg>